# xmcd CD database file
#
# Track frame offsets:
#	150
#	19052
#	34812
#	51089
#	68084
#	83291
#	97663
#	112851
#	127370
#	146052
#	160743
#	172595
#
# Disc length: 2476 seconds
#
# Revision: 0
# Processed by: cddbd v1.5.1PL0 Copyright (c) Steve Scherf et al.
# Submitted via: CDex 1.51
#
DISCID=8a09aa0c
DTITLE=Burnshee Thornside - Blues and misc.
DYEAR=2004
DGENRE=Blues
TTITLE0=Happy Blues
TTITLE1=You can't dance
TTITLE2=Hey Hey Hey
TTITLE3=Sticky Glue
TTITLE4=Ha-Keem
TTITLE5=Phone Number blues
TTITLE6=City Girls
TTITLE7=You and I
TTITLE8=I can't say no
TTITLE9=Bite your nose
TTITLE10=Not the one blues
TTITLE11=You are too expensive foor me
EXTD=YEAR: 2004
EXTT0=
EXTT1=
EXTT2=
EXTT3=
EXTT4=
EXTT5=
EXTT6=
EXTT7=
EXTT8=
EXTT9=
EXTT10=
EXTT11=
PLAYORDER=
